<mxfile host="65bd71144e">
    <diagram id="qEXE-vEvwkQKm3iM7fGL" name="Page-1">
        <mxGraphModel dx="567" dy="322" grid="1" gridSize="10" guides="1" tooltips="1" connect="1" arrows="1" fold="1" page="1" pageScale="1" pageWidth="1169" pageHeight="827" math="0" shadow="0">
            <root>
                <mxCell id="0"/>
                <mxCell id="1" parent="0"/>
                <mxCell id="2" value="" style="whiteSpace=wrap;html=1;fillColor=#493d85;strokeColor=#493D85;" parent="1" vertex="1">
                    <mxGeometry x="100" y="120" width="10" height="120" as="geometry"/>
                </mxCell>
                <mxCell id="3" value="" style="whiteSpace=wrap;html=1;fillColor=#493d85;strokeColor=#493D85;rotation=90;" parent="1" vertex="1">
                    <mxGeometry x="115" y="160" width="10" height="40" as="geometry"/>
                </mxCell>
                <mxCell id="4" style="edgeStyle=orthogonalEdgeStyle;rounded=0;orthogonalLoop=1;jettySize=auto;html=1;exitX=1;exitY=0.5;exitDx=0;exitDy=0;" parent="1" source="3" target="3" edge="1">
                    <mxGeometry relative="1" as="geometry"/>
                </mxCell>
                <mxCell id="14" value="" style="shape=corner;whiteSpace=wrap;html=1;strokeColor=#493D85;fillColor=#493d85;dx=10;dy=10;rotation=45;" parent="1" vertex="1">
                    <mxGeometry x="149" y="138" width="80" height="80" as="geometry"/>
                </mxCell>
                <mxCell id="15" value="" style="shape=corner;whiteSpace=wrap;html=1;strokeColor=#493D85;fillColor=#493d85;dx=10;dy=10;rotation=135;flipV=1;direction=west;" parent="1" vertex="1">
                    <mxGeometry x="248" y="138" width="80" height="80" as="geometry"/>
                </mxCell>
                <mxCell id="16" value="" style="ellipse;whiteSpace=wrap;html=1;aspect=fixed;strokeColor=#493D85;fillColor=#493d85;" parent="1" vertex="1">
                    <mxGeometry x="309" y="151" width="58" height="58" as="geometry"/>
                </mxCell>
                <mxCell id="17" value="" style="whiteSpace=wrap;html=1;fillColor=#493d85;strokeColor=#493D85;" parent="1" vertex="1">
                    <mxGeometry x="419" y="120" width="20" height="120" as="geometry"/>
                </mxCell>
            </root>
        </mxGraphModel>
    </diagram>
</mxfile>